<svg width="1200" height="700" viewBox="0 0 1200 700" fill="none" xmlns="http://www.w3.org/2000/svg">
  <rect width="1200" height="700" fill="#F4F8FF"/>
  <rect width="1200" height="700" fill="url(#bg)"/>
  <circle cx="1045" cy="120" r="230" fill="#93C5FD" fill-opacity="0.18"/>
  <circle cx="170" cy="590" r="240" fill="#1D4ED8" fill-opacity="0.1"/>
  <rect x="78" y="88" width="1044" height="524" rx="34" fill="white" fill-opacity="0.82"/>
  <rect x="118" y="130" width="258" height="16" rx="8" fill="#2563EB" fill-opacity="0.16"/>
  <rect x="118" y="178" width="532" height="70" rx="20" fill="#0F172A"/>
  <rect x="118" y="277" width="430" height="22" rx="11" fill="#475569" fill-opacity="0.9"/>
  <rect x="118" y="317" width="384" height="22" rx="11" fill="#64748B" fill-opacity="0.7"/>
  <rect x="118" y="392" width="182" height="60" rx="20" fill="#1D4ED8"/>
  <rect x="734" y="166" width="292" height="292" rx="52" fill="#DBEAFE"/>
  <path d="M821 248H939" stroke="#1D4ED8" stroke-width="22" stroke-linecap="round"/>
  <path d="M821 312H939" stroke="#1D4ED8" stroke-width="22" stroke-linecap="round"/>
  <path d="M821 376H900" stroke="#1D4ED8" stroke-width="22" stroke-linecap="round"/>
  <rect x="770" y="496" width="220" height="20" rx="10" fill="#2563EB" fill-opacity="0.18"/>
  <text x="118" y="170" fill="white" font-family="Figtree, Arial, sans-serif" font-size="46" font-weight="700">Catàleg acadèmic</text>
  <text x="118" y="286" fill="#334155" font-family="Figtree, Arial, sans-serif" font-size="26" font-weight="600">Portada institucional de curs</text>
  <text x="118" y="520" fill="white" font-family="Figtree, Arial, sans-serif" font-size="22" font-weight="700">Plataforma de cursos</text>
  <defs>
    <linearGradient id="bg" x1="86" y1="72" x2="1089" y2="671" gradientUnits="userSpaceOnUse">
      <stop stop-color="#E0EEFF"/>
      <stop offset="1" stop-color="#EFF6FF"/>
    </linearGradient>
  </defs>
</svg>
