<svg width="1200" height="700" viewBox="0 0 1200 700" fill="none" xmlns="http://www.w3.org/2000/svg">
  <rect width="1200" height="700" fill="url(#bg)"/>
  <circle cx="1008" cy="114" r="200" fill="#0EA5E9" fill-opacity="0.15"/>
  <rect x="74" y="74" width="1052" height="552" rx="40" fill="#F8FBFF"/>
  <text x="112" y="170" fill="#0F172A" font-family="Figtree, Arial, sans-serif" font-size="48" font-weight="700">Disseny de bases de dades</text>
  <text x="112" y="222" fill="#334155" font-family="Figtree, Arial, sans-serif" font-size="26" font-weight="500">Relacions, integritat i estructura per aplicacions web</text>
  <rect x="112" y="284" width="252" height="56" rx="18" fill="#0F766E"/>
  <text x="148" y="320" fill="white" font-family="Figtree, Arial, sans-serif" font-size="22" font-weight="700">Nivell intermedi</text>
  <g>
    <rect x="684" y="140" width="146" height="96" rx="22" fill="#DBEAFE"/>
    <rect x="888" y="140" width="146" height="96" rx="22" fill="#DBEAFE"/>
    <rect x="786" y="312" width="146" height="96" rx="22" fill="#BFDBFE"/>
    <path d="M830 188H888" stroke="#1D4ED8" stroke-width="14" stroke-linecap="round"/>
    <path d="M960 236V312" stroke="#1D4ED8" stroke-width="14" stroke-linecap="round"/>
    <path d="M758 236V312" stroke="#1D4ED8" stroke-width="14" stroke-linecap="round"/>
    <path d="M830 188H902" stroke="#1D4ED8" stroke-width="14" stroke-linecap="round"/>
    <path d="M902 188H960" stroke="#1D4ED8" stroke-width="14" stroke-linecap="round"/>
  </g>
  <rect x="112" y="420" width="932" height="120" rx="28" fill="#E0F2FE"/>
  <text x="148" y="468" fill="#075985" font-family="Figtree, Arial, sans-serif" font-size="18" font-weight="700">OBJECTIU</text>
  <text x="148" y="506" fill="#0F172A" font-family="Figtree, Arial, sans-serif" font-size="28" font-weight="600">Construir un model de dades clar, coherent i escalable</text>
  <defs>
    <linearGradient id="bg" x1="80" y1="72" x2="1117" y2="630" gradientUnits="userSpaceOnUse">
      <stop stop-color="#ECF7FF"/>
      <stop offset="1" stop-color="#DCEEFF"/>
    </linearGradient>
  </defs>
</svg>
